<svg xmlns="http://www.w3.org/2000/svg" viewBox="0 0 48 48" fill="none" width="100%" height="100%">
  <defs>
    <linearGradient id="arena-app-ico-grad" x1="0%" y1="0%" x2="100%" y2="100%">
      <stop offset="0%" stop-color="#2563EB" />
      <stop offset="50%" stop-color="#4F46E5" />
      <stop offset="100%" stop-color="#06B6D4" />
    </linearGradient>
    <filter id="arena-app-ico-glow" x="-20%" y="-20%" width="140%" height="140%">
      <feDropShadow dx="0" dy="2" stdDeviation="3" flood-color="#2563EB" flood-opacity="0.35" />
    </filter>
  </defs>

  <!-- Squircle Base -->
  <rect x="3" y="3" width="42" height="42" rx="12" fill="url(#arena-app-ico-grad)" filter="url(#arena-app-ico-glow)" />
  <rect x="4" y="4" width="40" height="40" rx="11" fill="none" stroke="rgba(255, 255, 255, 0.28)" stroke-width="1.5" />

  <!-- Hexagonal Arena Boundary -->
  <path d="M24 8L37.5 15.8V31.2L24 39L10.5 31.2V15.8L24 8Z" stroke="#FFFFFF" stroke-width="2" stroke-linejoin="round" stroke-opacity="0.95" />

  <!-- Central Core -->
  <circle cx="24" cy="24" r="4.2" fill="#FFFFFF" />

  <!-- Arena Network Rays -->
  <path d="M24 10.5V19.8" stroke="#FFFFFF" stroke-width="2" stroke-linecap="round" />
  <path d="M24 28.2V37.5" stroke="#FFFFFF" stroke-width="2" stroke-linecap="round" />
  <path d="M12.5 17.5L20.2 22" stroke="#FFFFFF" stroke-width="2" stroke-linecap="round" />
  <path d="M27.8 26L35.5 30.5" stroke="#FFFFFF" stroke-width="2" stroke-linecap="round" />
  <path d="M12.5 30.5L20.2 26" stroke="#FFFFFF" stroke-width="2" stroke-linecap="round" />
  <path d="M27.8 22L35.5 17.5" stroke="#FFFFFF" stroke-width="2" stroke-linecap="round" />

  <!-- Node Dots -->
  <circle cx="16.5" cy="19.5" r="1.6" fill="#38BDF8" />
  <circle cx="31.5" cy="28.5" r="1.6" fill="#38BDF8" />
  <circle cx="16.5" cy="28.5" r="1.6" fill="#FDE047" />
  <circle cx="31.5" cy="19.5" r="1.6" fill="#FDE047" />
</svg>
